<?xml version="1.0" standalone="no"?><!DOCTYPE svg PUBLIC "-//W3C//DTD SVG 1.1//EN" "http://www.w3.org/Graphics/SVG/1.1/DTD/svg11.dtd"><svg t="1685695693323" class="icon" viewBox="0 0 1024 1024" version="1.1" xmlns="http://www.w3.org/2000/svg" p-id="17571" xmlns:xlink="http://www.w3.org/1999/xlink" width="128" height="128"><path d="M388.4 578.6H139.5c-22.9 0-41.5-19.6-41.5-43.7v-393c0-24.1 18.6-43.7 41.5-43.7h248.9c22.9 0 41.5 19.6 41.5 43.7v393c0 24.2-18.6 43.7-41.5 43.7zM388.4 928H139.5c-22.9 0-41.5-19.6-41.5-43.7V709.6c0-24.1 18.6-43.7 41.5-43.7h248.9c22.9 0 41.5 19.6 41.5 43.7v174.7c0 24.1-18.6 43.7-41.5 43.7zM886.3 360.3H554.4c-22.9 0-41.5-19.6-41.5-43.7V141.9c0-24.1 18.6-43.7 41.5-43.7h331.9c22.9 0 41.5 19.6 41.5 43.7v174.7c0 24.1-18.6 43.7-41.5 43.7zM886.3 928H554.4c-22.9 0-41.5-19.6-41.5-43.7v-393c0-24.1 18.6-43.7 41.5-43.7h331.9c22.9 0 41.5 19.6 41.5 43.7v393c0 24.1-18.6 43.7-41.5 43.7z" fill="#17abe3" p-id="17572" data-spm-anchor-id="a313x.7781069.0.i23" class=""></path></svg>