<?xml version="1.0" standalone="no"?><!DOCTYPE svg PUBLIC "-//W3C//DTD SVG 1.1//EN" "http://www.w3.org/Graphics/SVG/1.1/DTD/svg11.dtd"><svg height="198" legacy-metrics="false" node-id="1" sillyvg="true" template-height="198" template-width="245" version="1.1" viewBox="0 0 245 198" width="245" xmlns="http://www.w3.org/2000/svg" xmlns:xlink="http://www.w3.org/1999/xlink"><defs node-id="111"><linearGradient gradientUnits="userSpaceOnUse" id="未命名的渐变_13" node-id="5" x1="-25250.33" x2="-25233.717" y1="-1529.4475" y2="-1529.4475"><stop offset="0" stop-color="#67e0a4"></stop><stop offset="0.5" stop-color="#67e0a4"></stop><stop offset="1" stop-color="#67e0a4"></stop></linearGradient><linearGradient gradientUnits="userSpaceOnUse" id="未命名的渐变_13-2" node-id="9" x1="153.78" x2="170.04" y1="51.93" y2="51.93"><stop offset="0" stop-color="#67e0a4"></stop><stop offset="0.5" stop-color="#67e0a4"></stop><stop offset="1" stop-color="#67e0a4"></stop></linearGradient><linearGradient gradientUnits="userSpaceOnUse" id="未命名的渐变_13-3" node-id="10" x1="-25290.936" x2="-25274.305" y1="-1522.7253" y2="-1522.7253"><stop offset="0" stop-color="#67e0a4"></stop><stop offset="0.5" stop-color="#67e0a4"></stop><stop offset="1" stop-color="#67e0a4"></stop></linearGradient><linearGradient gradientUnits="userSpaceOnUse" id="未命名的渐变_13-4" node-id="11" x1="178.59" x2="194.86" y1="66.26" y2="66.26"><stop offset="0" stop-color="#67e0a4"></stop><stop offset="0.5" stop-color="#67e0a4"></stop><stop offset="1" stop-color="#67e0a4"></stop></linearGradient><linearGradient gradientUnits="userSpaceOnUse" id="未命名的渐变_13-5" node-id="12" x1="-25273.535" x2="-25256.924" y1="-1515.9353" y2="-1515.9353"><stop offset="0" stop-color="#67e0a4"></stop><stop offset="0.5" stop-color="#67e0a4"></stop><stop offset="1" stop-color="#67e0a4"></stop></linearGradient><linearGradient gradientUnits="userSpaceOnUse" id="未命名的渐变_13-6" node-id="13" x1="203.42" x2="219.67" y1="80.59" y2="80.59"><stop offset="0" stop-color="#67e0a4"></stop><stop offset="0.5" stop-color="#67e0a4"></stop><stop offset="1" stop-color="#67e0a4"></stop></linearGradient><linearGradient gradientUnits="userSpaceOnUse" id="未命名的渐变_13-7" node-id="14" x1="-138325.16" x2="-138236.14" y1="-8299.791" y2="-8299.791"><stop offset="0" stop-color="#67e0a4"></stop><stop offset="0.5" stop-color="#67e0a4"></stop><stop offset="1" stop-color="#67e0a4"></stop></linearGradient><linearGradient gradientUnits="userSpaceOnUse" id="未命名的渐变_13-8" node-id="15" x1="-76743.87" x2="-76694.01" y1="-4601.4316" y2="-4601.4316"><stop offset="0" stop-color="#67e0a4"></stop><stop offset="0.5" stop-color="#67e0a4"></stop><stop offset="1" stop-color="#67e0a4"></stop></linearGradient><linearGradient gradientUnits="userSpaceOnUse" id="未命名的渐变_13-9" node-id="16" x1="-137481.08" x2="-137392.63" y1="-8299.791" y2="-8299.791"><stop offset="0" stop-color="#67e0a4"></stop><stop offset="0.5" stop-color="#67e0a4"></stop><stop offset="1" stop-color="#67e0a4"></stop></linearGradient><linearGradient gradientUnits="userSpaceOnUse" id="未命名的渐变_13-10" node-id="17" x1="-76265.17" x2="-76215.91" y1="-4601.4316" y2="-4601.4316"><stop offset="0" stop-color="#67e0a4"></stop><stop offset="0.5" stop-color="#67e0a4"></stop><stop offset="1" stop-color="#67e0a4"></stop></linearGradient><linearGradient gradientUnits="userSpaceOnUse" id="未命名的渐变_13-11" node-id="18" x1="-187270.02" x2="-187149.05" y1="-5592.475" y2="-5592.475"><stop offset="0" stop-color="#67e0a4"></stop><stop offset="0.5" stop-color="#67e0a4"></stop><stop offset="1" stop-color="#67e0a4"></stop></linearGradient><linearGradient gradientUnits="userSpaceOnUse" id="未命名的渐变_13-12" node-id="19" x1="-25222.912" x2="-25206.281" y1="-1496.8555" y2="-1496.8555"><stop offset="0" stop-color="#67e0a4"></stop><stop offset="0.5" stop-color="#2fa462"></stop><stop offset="1" stop-color="#67e0a4"></stop></linearGradient><linearGradient gradientUnits="userSpaceOnUse" id="未命名的渐变_13-13" node-id="20" x1="-24681.047" x2="-24664.813" y1="-1468.841" y2="-1468.841"><stop offset="0" stop-color="#67e0a4"></stop><stop offset="0.5" stop-color="#2fa462"></stop><stop offset="1" stop-color="#67e0a4"></stop></linearGradient><linearGradient gradientUnits="userSpaceOnUse" id="未命名的渐变_13-14" node-id="21" x1="-25205.412" x2="-25188.713" y1="-1489.9297" y2="-1489.9297"><stop offset="0" stop-color="#67e0a4"></stop><stop offset="0.5" stop-color="#2fa462"></stop><stop offset="1" stop-color="#67e0a4"></stop></linearGradient><linearGradient gradientUnits="userSpaceOnUse" id="未命名的渐变_13-15" node-id="22" x1="-24669.365" x2="-24653.129" y1="-1462.074" y2="-1462.074"><stop offset="0" stop-color="#67e0a4"></stop><stop offset="0.5" stop-color="#2fa462"></stop><stop offset="1" stop-color="#67e0a4"></stop></linearGradient><linearGradient gradientUnits="userSpaceOnUse" id="未命名的渐变_13-16" node-id="23" x1="-25245.793" x2="-25229.16" y1="-1483.3434" y2="-1483.3434"><stop offset="0" stop-color="#67e0a4"></stop><stop offset="0.5" stop-color="#2fa462"></stop><stop offset="1" stop-color="#67e0a4"></stop></linearGradient><linearGradient gradientUnits="userSpaceOnUse" id="未命名的渐变_13-17" node-id="24" x1="-24657.682" x2="-24641.447" y1="-1455.374" y2="-1455.374"><stop offset="0" stop-color="#67e0a4"></stop><stop offset="0.5" stop-color="#2fa462"></stop><stop offset="1" stop-color="#67e0a4"></stop></linearGradient><linearGradient gradientUnits="userSpaceOnUse" id="未命名的渐变_13-18" node-id="25" x1="-24658.867" x2="-24642.594" y1="-1525.2524" y2="-1525.2524"><stop offset="0" stop-color="#67e0a4"></stop><stop offset="0.5" stop-color="#67e0a4"></stop><stop offset="1" stop-color="#67e0a4"></stop></linearGradient><linearGradient gradientUnits="userSpaceOnUse" id="未命名的渐变_13-19" node-id="26" x1="-29379.686" x2="-29360.344" y1="-1798.465" y2="-1798.465"><stop offset="0" stop-color="#67e0a4"></stop><stop offset="0.5" stop-color="#67e0a4"></stop><stop offset="1" stop-color="#67e0a4"></stop></linearGradient><linearGradient gradientUnits="userSpaceOnUse" id="未命名的渐变_13-20" node-id="27" x1="-26795.76" x2="-26778.033" y1="-1337.8298" y2="-1337.8298"><stop offset="0" stop-color="#67e0a4"></stop><stop offset="0.5" stop-color="#67e0a4"></stop><stop offset="1" stop-color="#67e0a4"></stop></linearGradient><linearGradient gradientUnits="userSpaceOnUse" id="未命名的渐变_13-21" node-id="28" x1="-27064.385" x2="-27046.525" y1="-1339.9636" y2="-1339.9636"><stop offset="0" stop-color="#67e0a4"></stop><stop offset="0.5" stop-color="#2fa462"></stop><stop offset="1" stop-color="#67e0a4"></stop></linearGradient><linearGradient gradientUnits="userSpaceOnUse" id="未命名的渐变_13-22" node-id="29" x1="-26807.328" x2="-26789.695" y1="-1331.121" y2="-1331.121"><stop offset="0" stop-color="#67e0a4"></stop><stop offset="0.5" stop-color="#2fa462"></stop><stop offset="1" stop-color="#67e0a4"></stop></linearGradient><linearGradient gradientUnits="userSpaceOnUse" id="未命名的渐变_13-23" node-id="30" x1="-27052.635" x2="-27034.87" y1="-1332.8044" y2="-1332.8044"><stop offset="0" stop-color="#67e0a4"></stop><stop offset="0.5" stop-color="#2fa462"></stop><stop offset="1" stop-color="#67e0a4"></stop></linearGradient><linearGradient gradientUnits="userSpaceOnUse" id="未命名的渐变_13-24" node-id="31" x1="-78171.766" x2="-78121.26" y1="-2114.4421" y2="-2114.4421"><stop offset="0" stop-color="#67e0a4"></stop><stop offset="0.5" stop-color="#2fa462"></stop><stop offset="1" stop-color="#67e0a4"></stop></linearGradient><linearGradient gradientUnits="userSpaceOnUse" id="未命名的渐变_165" node-id="32" x1="-30541.984" x2="-30521.969" y1="-591.584" y2="-591.584"><stop offset="0.01" stop-color="#67e0a4"></stop><stop offset="1" stop-color="#67e0a4" stop-opacity="0.6392157"></stop></linearGradient><linearGradient gradientUnits="userSpaceOnUse" id="未命名的渐变_165-2" node-id="35" x1="-49831.355" x2="-49798.832" y1="-746.75525" y2="-746.75525"><stop offset="0.01" stop-color="#67e0a4"></stop><stop offset="1" stop-color="#8bebbd"></stop></linearGradient><linearGradient gradientUnits="userSpaceOnUse" id="未命名的渐变_165-3" node-id="36" x1="-14672.817" x2="-14662.934" y1="-39.653" y2="-39.653"><stop offset="0.01" stop-color="#f29938"></stop><stop offset="1" stop-color="#f29938"></stop></linearGradient><linearGradient gradientUnits="userSpaceOnUse" id="未命名的渐变_165-4" node-id="37" x1="-48568.45" x2="-48536.695" y1="-5691.9937" y2="-5691.9937"><stop offset="0.01" stop-color="#f29938"></stop><stop offset="1" stop-color="#f29938"></stop></linearGradient><linearGradient gradientUnits="userSpaceOnUse" id="未命名的渐变_165-5" node-id="38" x1="-10178.33" x2="-10171.337" y1="160.0107" y2="160.0107"><stop offset="0.01" stop-color="#f29938"></stop><stop offset="1" stop-color="#f29938"></stop></linearGradient><linearGradient gradientUnits="userSpaceOnUse" id="未命名的渐变_165-6" node-id="39" x1="-34213.457" x2="-34191.08" y1="-3442.6272" y2="-3442.6272"><stop offset="0.01" stop-color="#f29938"></stop><stop offset="1" stop-color="#f29938"></stop></linearGradient><linearGradient gradientUnits="userSpaceOnUse" id="未命名的渐变_165-7" node-id="40" x1="-32800.063" x2="-32778.57" y1="-2472.0056" y2="-2472.0056"><stop offset="0.01" stop-color="#f29938"></stop><stop offset="1" stop-color="#f29938"></stop></linearGradient><linearGradient gradientUnits="userSpaceOnUse" id="未命名的渐变_165-8" node-id="41" x1="-72138.15" x2="-72091.53" y1="-8180.542" y2="-8180.542"><stop offset="0.01" stop-color="#f29938"></stop><stop offset="1" stop-color="#f29938"></stop></linearGradient></defs><g node-id="113"><g node-id="114"><path d="M 207.32 133.64 L 221.32 125.50 C 224.42 123.70 224.40 120.79 221.32 118.99 L 203.00 108.41 L 219.21 99.00 L 212.16 94.93 L 195.91 104.38 L 178.14 94.08 L 194.39 84.64 L 187.39 80.57 L 171.09 90.00 L 153.32 79.74 L 169.58 70.30 L 162.52 66.23 L 146.27 75.67 L 129.35 65.90 C 125.82 64.10 121.64 64.10 118.11 65.90 L 104.11 74.04 L 87.47 64.43 L 80.47 68.51 L 97.10 78.12 L 79.45 88.38 L 62.81 78.77 L 55.81 82.84 L 72.45 92.46 L 54.80 102.72 L 38.16 93.10 L 31.16 97.17 L 47.80 106.77 L 26.78 119.00 C 23.69 120.80 23.70 123.71 26.78 125.51 L 43.70 135.28 L 27.44 144.72 L 34.49 148.79 L 50.73 139.35 L 68.49 149.60 L 52.28 159.00 L 59.28 163.07 L 75.56 153.64 L 93.32 163.90 L 77.07 173.34 L 84.07 177.40 L 100.42 168.00 L 118.75 178.59 C 122.28 180.39 126.46 180.39 129.99 178.59 L 150.99 166.38 L 167.64 176.00 L 174.64 171.93 L 158.00 162.30 L 175.66 152.00 L 192.29 161.59 L 199.29 157.52 L 182.65 148.00 L 200.30 137.70 L 217.00 147.32 L 224.00 143.25 Z" fill="#000000" fill-opacity="0.03" fill-rule="nonzero" group-id="1,2" id="路径_1262" node-id="46" stroke-linecap="butt" stroke-opacity="0.03" stroke-width="1" target-height="115.51034" target-width="199.53375" target-x="24.466251" target-y="64.43"></path></g><g node-id="115"><path d="M 205.38 122.78 L 219.38 114.64 C 222.48 112.84 222.46 109.92 219.38 108.13 L 201.00 97.55 L 217.24 88.08 L 210.21 84.00 L 194.00 93.46 L 176.20 83.21 L 192.45 73.78 L 185.45 69.71 L 169.19 79.14 L 151.38 68.89 L 167.63 59.44 L 160.63 55.37 L 144.38 64.82 L 127.46 55.05 C 123.93 53.25 119.75 53.25 116.22 55.05 L 102.22 63.18 L 85.58 53.58 L 78.58 57.65 L 95.21 67.25 L 77.51 77.51 L 60.87 67.91 L 53.87 71.98 L 70.51 81.58 L 52.86 91.84 L 36.22 82.23 L 29.22 86.30 L 45.86 95.91 L 24.86 108.12 C 21.76 109.92 21.78 112.83 24.86 114.63 L 41.80 124.40 L 25.55 133.84 L 32.60 137.91 L 48.86 128.47 L 66.62 138.72 L 50.38 148.17 L 57.38 152.24 L 73.64 142.79 L 91.40 153.05 L 75.19 162.50 L 82.19 166.57 L 98.43 157.12 L 116.76 167.71 C 120.29 169.50 124.47 169.50 128.00 167.71 L 149.00 155.49 L 165.63 165.10 L 172.63 161.03 L 155.99 151.42 L 173.64 141.16 L 190.28 150.77 L 197.28 146.70 L 180.65 137.09 L 198.30 126.84 L 215.00 136.45 L 222.00 132.38 Z" fill="#a7b8d1" fill-opacity="0.19" fill-rule="nonzero" group-id="1,3" id="路径_1263" node-id="47" stroke-linecap="butt" stroke-opacity="0.19" stroke-width="1" target-height="115.47304" target-width="199.4575" target-x="22.542501" target-y="53.58"></path></g><path d="M 124.80 149.00 L 38.47 99.14 L 124.22 49.32 L 210.54 99.15 Z" fill="#e7edf7" fill-rule="nonzero" group-id="1" id="路径_1264" node-id="48" stroke="none" target-height="99.68" target-width="172.06999" target-x="38.47" target-y="49.32"></path><path d="M 97.56 53.40 L 97.56 56.64 L 80.92 47.00 L 80.92 43.79 Z" fill="url(#未命名的渐变_13)" fill-rule="nonzero" group-id="1" id="路径_1265" node-id="49" stroke="none" target-height="12.849998" target-width="16.64" target-x="80.92" target-y="43.79"></path><path d="M 170.00 45.59 L 170.00 48.83 L 153.75 58.27 L 153.75 55.00 Z" fill="url(#未命名的渐变_13-2)" fill-rule="nonzero" group-id="1" id="路径_1266" node-id="50" stroke="none" target-height="12.68" target-width="16.25" target-x="153.75" target-y="45.59"></path><path d="M 72.91 67.73 L 72.91 71.00 L 56.26 61.36 L 56.26 58.12 Z" fill="url(#未命名的渐变_13-3)" fill-rule="nonzero" group-id="1" id="路径_1267" node-id="51" stroke="none" target-height="12.880001" target-width="16.650005" target-x="56.26" target-y="58.12"></path><path d="M 194.86 59.91 L 194.86 63.15 L 178.59 72.60 L 178.59 69.36 Z" fill="url(#未命名的渐变_13-4)" fill-rule="nonzero" group-id="1" id="路径_1268" node-id="52" stroke="none" target-height="12.689999" target-width="16.270004" target-x="178.59" target-y="59.91"></path><path d="M 48.25 82.06 L 48.25 85.30 L 31.61 75.69 L 31.61 72.45 Z" fill="url(#未命名的渐变_13-5)" fill-rule="nonzero" group-id="1" id="路径_1269" node-id="53" stroke="none" target-height="12.850006" target-width="16.64" target-x="31.61" target-y="72.45"></path><path d="M 219.67 74.25 L 219.67 77.49 L 203.42 86.93 L 203.42 83.69 Z" fill="url(#未命名的渐变_13-6)" fill-rule="nonzero" group-id="1" id="路径_1270" node-id="54" stroke="none" target-height="12.68" target-width="16.25" target-x="203.42" target-y="74.25"></path><path d="M 196.42 87.76 L 189.42 83.69 L 171.60 73.43 L 164.60 69.36 L 146.78 59.09 L 139.73 55.00 L 124.22 46.00 L 124.22 49.24 L 139.74 58.19 L 146.79 62.27 L 164.56 72.52 L 171.61 76.59 L 189.37 86.85 L 196.41 91.00 L 213.32 100.76 L 213.32 97.52 Z" fill="url(#未命名的渐变_13-7)" fill-rule="nonzero" group-id="1" id="路径_1271" node-id="55" stroke="none" target-height="54.760002" target-width="89.100006" target-x="124.22" target-y="46"></path><path d="M 174.00 97.85 L 174.00 101.09 L 124.34 72.44 L 124.34 69.20 Z" fill="url(#未命名的渐变_13-8)" fill-rule="nonzero" group-id="1" id="路径_1272" node-id="56" stroke="none" target-height="31.89" target-width="49.660004" target-x="124.34" target-y="69.2"></path><path d="M 124.22 46.08 L 124.22 49.31 L 35.68 100.77 L 35.68 97.52 Z" fill="url(#未命名的渐变_13-9)" fill-rule="nonzero" group-id="1" id="路径_1273" node-id="57" stroke="none" target-height="54.689995" target-width="88.54" target-x="35.68" target-y="46.08"></path><path d="M 124.36 69.20 L 124.36 72.44 L 75.00 101.09 L 75.00 97.85 Z" fill="url(#未命名的渐变_13-10)" fill-rule="nonzero" group-id="1" id="路径_1274" node-id="58" stroke="none" target-height="31.89" target-width="49.36" target-x="75" target-y="69.2"></path><path d="M 184.74 98.11 C 184.75 98.19 184.75 98.28 184.74 98.36 C 184.74 98.43 184.74 98.49 184.74 98.56 C 184.73 98.64 184.71 98.72 184.67 98.80 C 184.65 98.87 184.62 98.93 184.59 98.99 C 184.59 99.07 184.52 99.15 184.48 99.24 C 184.42 99.35 184.35 99.46 184.27 99.57 L 184.27 99.63 C 184.19 99.74 184.10 99.85 184.00 99.95 L 184.00 100.01 C 183.90 100.12 183.79 100.23 183.67 100.34 L 183.42 100.54 L 183.20 100.72 L 182.92 100.90 C 182.82 100.97 182.72 101.03 182.61 101.09 L 130.50 131.37 C 130.25 131.51 130.00 131.63 129.74 131.75 L 129.51 131.85 C 129.31 131.93 129.12 132.01 128.89 132.08 L 128.66 132.16 L 128.26 132.28 L 127.95 132.36 L 127.51 132.45 L 127.21 132.52 C 126.92 132.52 126.61 132.61 126.31 132.64 C 126.22 132.63 126.12 132.63 126.03 132.64 L 125.49 132.64 L 124.34 132.64 L 123.95 132.64 L 123.57 132.64 C 123.44 132.66 123.30 132.66 123.17 132.64 L 122.81 132.64 L 122.39 132.57 L 122.06 132.50 L 121.57 132.38 L 121.29 132.31 L 120.44 132.02 L 120.04 131.85 L 119.84 131.76 C 119.64 131.67 119.44 131.56 119.25 131.46 L 66.61 101.09 C 65.29 100.50 64.39 99.25 64.26 97.81 L 64.26 101.05 C 64.39 102.49 65.29 103.74 66.61 104.33 L 119.09 134.61 L 119.67 134.91 L 119.87 135.00 L 120.23 135.16 L 120.23 135.16 C 120.50 135.27 120.79 135.36 121.08 135.45 L 121.15 135.45 L 121.36 135.50 L 121.85 135.62 L 121.98 135.62 L 122.18 135.62 L 122.60 135.69 L 122.77 135.69 L 122.96 135.69 L 123.35 135.69 L 123.54 135.69 L 123.72 135.69 C 123.85 135.68 123.98 135.68 124.11 135.69 L 125.26 135.69 L 125.80 135.69 L 126.08 135.69 C 126.38 135.69 126.69 135.62 126.98 135.57 L 126.98 135.57 L 127.23 135.57 L 127.67 135.48 L 127.98 135.39 C 128.12 135.36 128.25 135.32 128.38 135.27 L 128.47 135.27 L 128.61 135.21 L 129.24 134.98 L 129.46 134.88 C 129.72 134.77 129.98 134.64 130.22 134.49 L 182.32 104.21 L 182.41 104.21 L 182.62 104.07 L 183.00 104.00 L 183.22 103.82 C 183.31 103.76 183.39 103.69 183.46 103.62 L 183.51 103.62 C 183.61 103.53 183.70 103.43 183.79 103.33 L 183.85 103.27 C 183.91 103.19 183.96 103.10 184.00 103.00 L 184.11 102.86 L 184.11 102.86 L 184.28 102.58 L 184.28 102.52 L 184.40 102.27 L 184.46 102.13 L 184.46 102.13 C 184.49 102.05 184.51 101.97 184.53 101.89 C 184.53 101.81 184.53 101.78 184.53 101.73 C 184.53 101.68 184.53 101.73 184.53 101.73 C 184.52 101.65 184.52 101.56 184.53 101.48 C 184.53 101.39 184.53 101.37 184.53 101.32 L 184.53 97.85 C 184.61 97.93 184.68 98.01 184.74 98.11 Z" fill="url(#未命名的渐变_13-11)" fill-rule="nonzero" group-id="1" id="路径_1275" node-id="59" stroke="none" target-height="37.880005" target-width="120.48" target-x="64.26" target-y="97.81"></path><path d="M 217.42 122.60 L 200.78 113.00 L 183.15 123.26 L 199.78 132.86 L 192.78 136.93 L 176.13 127.33 L 158.48 137.59 L 175.12 147.19 L 168.12 151.26 L 151.48 141.66 L 130.48 153.87 C 126.95 155.66 122.77 155.66 119.24 153.87 L 100.90 143.27 L 84.64 152.72 L 77.64 148.65 L 93.90 139.20 L 76.06 129.00 L 59.81 138.40 L 52.75 134.32 L 69.00 124.88 L 51.24 114.62 L 35.00 124.07 L 28.00 120.00 L 44.25 110.55 L 27.33 100.79 C 24.22 98.98 24.20 96.07 27.33 94.27 L 48.33 82.06 L 31.60 72.45 L 38.60 68.38 L 55.24 78.00 L 72.89 67.74 L 56.25 58.13 L 63.25 54.06 L 79.89 63.66 L 97.54 53.41 L 80.90 43.80 L 87.90 39.73 L 104.53 49.34 L 118.53 41.18 C 122.06 39.39 126.24 39.39 129.77 41.18 L 146.71 51.00 L 163.00 41.51 L 170.00 45.59 L 153.75 55.00 L 171.51 65.25 L 187.76 55.81 L 194.82 59.88 L 178.58 69.31 L 196.35 79.57 L 212.60 70.12 L 219.66 74.19 L 203.41 83.64 L 221.74 94.22 C 224.86 96.02 224.88 98.94 221.74 100.74 L 207.74 108.87 L 224.38 118.48 Z M 124.79 149.00 L 213.36 97.54 L 196.44 87.78 L 189.39 83.71 L 171.62 73.43 L 164.57 69.35 L 146.79 59.10 L 139.79 55.03 L 124.30 46.03 L 35.69 97.53 L 51.20 106.53 L 58.20 110.60 L 76.00 120.81 L 83.00 124.88 L 100.77 135.14 L 107.77 139.21 L 124.80 149.00" fill="#f5f6f7" fill-rule="nonzero" group-id="1" id="路径_1276" node-id="60" stroke="none" target-height="115.48305" target-width="199.39" target-x="24.99" target-y="39.73"></path><path d="M 182.40 94.59 C 185.52 96.40 185.54 99.31 182.40 101.11 L 130.29 131.38 C 126.76 133.18 122.57 133.18 119.04 131.38 L 66.63 101.11 C 63.51 99.31 63.49 96.39 66.63 94.59 L 118.70 64.32 C 122.23 62.52 126.42 62.52 129.95 64.32 Z M 124.67 126.51 L 174.00 97.85 L 124.34 69.20 L 75.05 97.85 L 124.68 126.51" fill="#f5f6f7" fill-rule="nonzero" group-id="1" id="路径_1277" node-id="61" stroke="none" target-height="69.760925" target-width="120.465" target-x="64.2825" target-y="62.969543"></path><path d="M 217.42 122.60 L 217.42 125.84 L 200.78 116.23 L 200.78 113.00 Z" fill="url(#未命名的渐变_13-12)" fill-rule="nonzero" group-id="1" id="路径_1278" node-id="62" stroke="none" target-height="12.839996" target-width="16.64" target-x="200.78" target-y="113"></path><path d="M 224.42 118.53 L 224.42 121.77 L 217.42 125.84 L 217.42 122.60 Z" fill="#67e0a4" fill-rule="nonzero" group-id="1" id="路径_1279" node-id="63" stroke="none" target-height="7.3099976" target-width="7" target-x="217.42" target-y="118.53"></path><path d="M 51.24 114.62 L 51.24 117.86 L 35.00 127.31 L 35.00 124.07 Z" fill="url(#未命名的渐变_13-13)" fill-rule="nonzero" group-id="1" id="路径_1280" node-id="64" stroke="none" target-height="12.689995" target-width="16.240002" target-x="35" target-y="114.62"></path><path d="M 35.00 124.07 L 35.00 127.31 L 28.00 123.24 L 28.00 120.00 Z" fill="#67e0a4" fill-rule="nonzero" group-id="1" id="路径_1281" node-id="65" stroke="none" target-height="7.3099976" target-width="7" target-x="28" target-y="120"></path><path d="M 199.76 132.86 L 199.76 136.10 L 192.76 140.17 L 192.76 136.93 Z" fill="#67e0a4" fill-rule="nonzero" group-id="1" id="路径_1282" node-id="66" stroke="none" target-height="7.3099976" target-width="7" target-x="192.76" target-y="132.86"></path><path d="M 192.76 136.93 L 192.76 140.17 L 176.12 130.56 L 176.12 127.32 Z" fill="url(#未命名的渐变_13-14)" fill-rule="nonzero" group-id="1" id="路径_1283" node-id="67" stroke="none" target-height="12.849998" target-width="16.64" target-x="176.12" target-y="127.32"></path><path d="M 76.06 129.00 L 76.06 132.24 L 59.81 141.68 L 59.81 138.44 Z" fill="url(#未命名的渐变_13-15)" fill-rule="nonzero" group-id="1" id="路径_1284" node-id="68" stroke="none" target-height="12.679993" target-width="16.249996" target-x="59.81" target-y="129"></path><path d="M 59.81 138.39 L 59.81 141.63 L 52.76 137.56 L 52.76 134.32 Z" fill="#67e0a4" fill-rule="nonzero" group-id="1" id="路径_1285" node-id="69" stroke="none" target-height="7.3099976" target-width="7.050003" target-x="52.76" target-y="134.32"></path><path d="M 168.10 151.26 L 168.10 154.50 L 151.46 144.89 L 151.46 141.65 Z" fill="url(#未命名的渐变_13-16)" fill-rule="nonzero" group-id="1" id="路径_1286" node-id="70" stroke="none" target-height="12.850006" target-width="16.64" target-x="151.46" target-y="141.65"></path><path d="M 175.11 147.19 L 175.11 150.43 L 168.11 154.50 L 168.11 151.26 Z" fill="#67e0a4" fill-rule="nonzero" group-id="1" id="路径_1287" node-id="71" stroke="none" target-height="7.3099976" target-width="7" target-x="168.11" target-y="147.19"></path><path d="M 84.63 152.72 L 84.63 156.00 L 77.57 151.93 L 77.57 148.69 Z" fill="#67e0a4" fill-rule="nonzero" group-id="1" id="路径_1288" node-id="72" stroke="none" target-height="7.3099976" target-width="7.0599976" target-x="77.57" target-y="148.69"></path><path d="M 100.88 143.28 L 100.88 146.52 L 84.63 156.00 L 84.63 152.76 Z" fill="url(#未命名的渐变_13-17)" fill-rule="nonzero" group-id="1" id="路径_1289" node-id="73" stroke="none" target-height="12.720001" target-width="16.25" target-x="84.63" target-y="143.28"></path><path d="M 224.09 97.78 C 224.11 97.86 224.11 97.95 224.09 98.03 C 224.07 98.10 224.05 98.16 224.04 98.23 C 224.02 98.31 224.00 98.39 223.97 98.47 C 223.95 98.53 223.92 98.60 223.89 98.66 C 223.85 98.75 223.81 98.83 223.77 98.91 C 223.71 99.02 223.64 99.14 223.57 99.24 L 223.57 99.30 C 223.49 99.41 223.40 99.52 223.31 99.63 L 223.26 99.69 C 223.15 99.80 223.04 99.91 222.92 100.01 L 222.68 100.22 L 222.46 100.39 L 222.17 100.58 L 221.87 100.77 L 207.87 108.91 L 210.65 110.52 L 221.79 104.00 L 221.89 103.94 L 222.09 103.80 L 222.37 103.62 L 222.60 103.44 L 222.84 103.24 L 222.84 103.24 L 223.13 102.95 L 223.13 102.89 C 223.19 102.83 223.24 102.77 223.28 102.70 L 223.39 102.56 L 223.39 102.50 L 223.56 102.23 L 223.56 102.17 C 223.61 102.08 223.64 102.00 223.68 101.92 C 223.70 101.87 223.72 101.82 223.75 101.77 L 223.75 101.77 C 223.77 101.69 223.79 101.61 223.82 101.53 C 223.82 101.45 223.82 101.42 223.82 101.37 L 223.82 101.37 C 223.82 101.29 223.82 101.20 223.82 101.12 C 223.83 101.07 223.83 101.01 223.82 100.96 L 223.82 97.55 C 223.92 97.61 224.02 97.69 224.09 97.78 Z" fill="url(#未命名的渐变_13-18)" fill-rule="nonzero" group-id="1" id="路径_1290" node-id="74" stroke="none" target-height="12.969994" target-width="16.220001" target-x="207.87" target-y="97.55"></path><path d="M 24.93 97.50 L 24.93 100.74 C 25.07 102.17 25.97 103.41 27.28 104.00 L 41.41 112.16 L 44.19 110.53 L 27.28 100.76 C 25.97 100.17 25.07 98.93 24.93 97.50 Z" fill="url(#未命名的渐变_13-19)" fill-rule="nonzero" group-id="1" id="路径_1291" node-id="75" stroke="none" target-height="14.660004" target-width="19.259998" target-x="24.93" target-y="97.5"></path><path d="M 185.92 124.86 L 200.76 116.23 L 200.76 112.99 L 183.11 123.25 Z" fill="url(#未命名的渐变_13-20)" fill-rule="nonzero" group-id="1" id="路径_1292" node-id="76" stroke="none" target-height="11.870003" target-width="17.649994" target-x="183.11" target-y="112.99"></path><path d="M 51.24 117.86 L 66.24 126.51 L 69.04 124.88 L 51.24 114.62 Z" fill="url(#未命名的渐变_13-21)" fill-rule="nonzero" group-id="1" id="路径_1293" node-id="77" stroke="none" target-height="11.889999" target-width="17.8" target-x="51.24" target-y="114.62"></path><path d="M 161.27 139.19 L 176.12 130.56 L 176.12 127.32 L 158.47 137.58 Z" fill="url(#未命名的渐变_13-22)" fill-rule="nonzero" group-id="1" id="路径_1294" node-id="78" stroke="none" target-height="11.870003" target-width="17.649994" target-x="158.47" target-y="127.32"></path><path d="M 76.05 132.18 L 91.05 140.82 L 93.85 139.20 L 76.05 129.00 Z" fill="url(#未命名的渐变_13-23)" fill-rule="nonzero" group-id="1" id="路径_1295" node-id="79" stroke="none" target-height="11.820007" target-width="17.799995" target-x="76.05" target-y="129"></path><path d="M 129.70 154.24 L 129.48 154.33 C 129.27 154.42 129.06 154.50 128.85 154.57 L 128.62 154.65 L 128.22 154.76 L 127.89 154.87 C 127.74 154.87 127.60 154.94 127.45 154.96 L 127.15 155.02 C 126.85 155.08 126.55 155.12 126.24 155.15 L 125.96 155.15 L 125.42 155.15 L 124.28 155.15 L 123.88 155.15 L 123.52 155.15 L 123.12 155.15 L 122.77 155.10 L 122.34 155.03 L 122.01 154.96 L 121.52 154.84 L 121.25 154.77 C 120.96 154.68 120.68 154.59 120.40 154.48 L 120.00 154.31 L 119.79 154.22 C 119.59 154.13 119.40 154.03 119.21 153.92 L 100.88 143.30 L 100.88 146.54 L 119.21 157.12 C 119.40 157.23 119.60 157.33 119.79 157.42 L 119.99 157.51 L 120.35 157.67 L 120.40 157.67 C 120.67 157.77 120.96 157.87 121.25 157.95 L 121.32 157.95 L 121.52 158.00 L 122.02 158.12 L 122.15 158.12 L 122.34 158.12 L 122.76 158.19 L 122.93 158.19 L 123.12 158.19 L 123.52 158.19 L 123.71 158.19 L 125.41 158.19 C 125.59 158.20 125.77 158.20 125.95 158.19 L 126.23 158.19 C 126.53 158.19 126.83 158.12 127.13 158.06 L 127.13 158.06 L 127.39 158.01 L 127.83 157.92 L 128.15 157.83 L 128.54 157.72 L 128.63 157.72 L 128.77 157.67 L 129.39 157.43 L 129.62 157.33 C 129.88 157.22 130.13 157.09 130.38 156.95 L 151.38 144.74 L 151.38 141.50 L 130.38 153.71 C 130.15 153.85 129.91 153.98 129.67 154.09 Z" fill="url(#未命名的渐变_13-24)" fill-rule="nonzero" group-id="1" id="路径_1296" node-id="80" stroke="none" target-height="16.690002" target-width="50.500008" target-x="100.88" target-y="141.5"></path><path d="M 147.84 95.64 C 148.34 95.89 148.73 96.33 148.93 96.85 C 149.33 98.09 147.93 99.27 145.75 99.50 L 129.00 101.24 L 135.49 104.99 C 136.49 105.59 136.90 106.47 136.49 107.26 C 135.78 108.22 134.68 108.80 133.49 108.83 L 108.93 111.54 C 107.72 111.70 106.48 111.48 105.40 110.91 C 104.91 110.66 104.52 110.24 104.32 109.72 C 103.92 108.48 105.32 107.29 107.43 107.06 L 124.71 105.18 L 118.14 101.39 C 117.14 100.79 116.73 99.91 117.14 99.10 C 117.84 98.14 118.95 97.57 120.14 97.54 L 144.36 95.00 C 145.55 94.85 146.77 95.06 147.84 95.61 Z" fill="#d4d5d8" fill-rule="nonzero" group-id="1" id="路径_1297" node-id="81" stroke="none" target-height="16.54" target-width="44.609993" target-x="104.32" target-y="95"></path><path d="M 50.00 174.82 L 50.00 186.70 L 39.66 192.70 L 39.66 180.82 Z" fill="#67e0a4" fill-rule="nonzero" group-id="1" id="路径_1298" node-id="82" stroke="none" target-height="17.87999" target-width="10.34" target-x="39.66" target-y="174.82"></path><path d="M 39.68 180.82 L 39.68 192.70 L 29.27 186.70 L 29.27 174.82 Z" fill="#67e0a4" fill-rule="nonzero" group-id="1" id="路径_1299" node-id="83" stroke="none" target-height="17.87999" target-width="10.41" target-x="29.27" target-y="174.82"></path><path d="M 50.00 174.82 L 39.67 180.82 L 29.26 174.82 L 39.59 168.82 Z" fill="#c6f3dd" fill-rule="nonzero" group-id="1" id="路径_1300" node-id="84" stroke="none" target-height="12" target-width="20.74" target-x="29.26" target-y="168.82"></path><path d="M 56.63 194.14 L 56.63 196.45 L 54.42 197.73 L 54.42 195.42 Z" fill="#f2a85f" fill-rule="nonzero" group-id="1" id="路径_1304" node-id="85" stroke="none" target-height="3.5899963" target-width="2.210003" target-x="54.42" target-y="194.14"></path><path d="M 54.42 195.42 L 54.42 197.73 L 52.20 196.45 L 52.20 194.14 Z" fill="#f29938" fill-rule="nonzero" group-id="1" id="路径_1305" node-id="86" stroke="none" target-height="3.5899963" target-width="2.2199974" target-x="52.2" target-y="194.14"></path><path d="M 56.63 194.14 L 54.42 195.42 L 52.19 194.14 L 54.40 192.85 Z" fill="#f4b76e" fill-rule="nonzero" group-id="1" id="路径_1306" node-id="87" stroke="none" target-height="2.569992" target-width="4.4400024" target-x="52.19" target-y="192.85"></path><path d="M 51.00 185.66 L 51.00 189.06 L 47.71 191.00 L 47.71 187.59 Z" fill="#f2a85f" fill-rule="nonzero" group-id="1" id="路径_1307" node-id="88" stroke="none" target-height="5.3399963" target-width="3.290001" target-x="47.71" target-y="185.66"></path><path d="M 47.73 187.55 L 47.73 190.95 L 44.46 189.06 L 44.46 185.66 Z" fill="#f29938" fill-rule="nonzero" group-id="1" id="路径_1308" node-id="89" stroke="none" target-height="5.2899933" target-width="3.2700005" target-x="44.46" target-y="185.66"></path><path d="M 51.00 185.66 L 47.75 187.55 L 44.47 185.66 L 47.72 183.77 Z" fill="#f4b76e" fill-rule="nonzero" group-id="1" id="路径_1309" node-id="90" stroke="none" target-height="3.7799988" target-width="6.529999" target-x="44.47" target-y="183.77"></path><path d="M 115.71 93.94 C 115.06 93.64 114.62 93.03 114.55 92.32 L 114.55 95.56 C 114.62 96.27 115.06 96.88 115.70 97.18 L 122.27 100.97 L 122.27 97.73 Z" fill="#67e0a4" fill-rule="nonzero" group-id="1" id="路径_1310" node-id="91" stroke="none" target-height="8.650002" target-width="7.7199936" target-x="114.55" target-y="92.32"></path><path d="M 146.62 89.92 L 146.62 90.06 C 146.62 90.09 146.62 90.12 146.62 90.15 C 146.60 90.22 146.58 90.29 146.55 90.35 L 146.49 90.48 L 146.49 90.56 C 146.46 90.62 146.42 90.68 146.38 90.73 L 146.38 90.73 C 146.31 90.81 146.24 90.89 146.16 90.96 L 146.08 91.03 L 145.94 91.14 C 145.92 91.17 145.89 91.19 145.86 91.21 L 145.69 91.32 L 145.62 91.32 C 145.49 91.39 145.36 91.46 145.22 91.51 L 145.15 91.51 C 145.02 91.57 144.87 91.62 144.73 91.67 L 144.61 91.67 L 144.40 91.73 L 144.26 91.73 L 144.00 92.00 L 143.87 92.00 C 143.72 92.03 143.58 92.05 143.43 92.06 L 126.63 93.80 L 126.63 97.00 L 143.42 95.26 C 143.57 95.26 143.72 95.24 143.86 95.20 L 143.91 95.20 L 143.99 95.20 L 144.20 95.20 L 144.34 95.20 C 144.41 95.19 144.48 95.17 144.55 95.14 L 144.63 95.14 L 144.63 95.14 L 145.06 94.98 L 145.13 94.98 C 145.26 94.93 145.39 94.86 145.51 94.79 L 145.51 94.79 L 145.57 94.79 L 145.74 94.67 L 145.82 94.61 L 145.96 94.49 L 145.96 94.49 C 145.96 94.49 145.96 94.49 145.96 94.49 C 146.04 94.42 146.11 94.34 146.17 94.26 L 146.17 94.26 L 146.17 94.26 C 146.21 94.21 146.25 94.15 146.28 94.09 L 146.28 94.09 C 146.28 94.09 146.28 94.09 146.28 94.09 L 146.34 93.96 C 146.34 93.96 146.34 93.96 146.34 93.96 L 146.34 93.96 L 146.34 93.84 L 146.34 89.86 Z" fill="url(#未命名的渐变_165)" fill-rule="nonzero" group-id="1" id="路径_1311" node-id="92" stroke="none" target-height="7.1399994" target-width="19.989998" target-x="126.63" target-y="89.86"></path><path d="M 134.18 99.54 C 134.12 99.75 134.02 99.94 133.88 100.11 L 133.80 100.20 L 133.63 100.37 L 133.63 100.37 C 133.56 100.44 133.48 100.50 133.40 100.56 L 133.30 100.63 L 133.11 100.75 L 132.87 100.87 L 132.68 100.95 L 132.40 101.06 L 132.21 101.12 C 132.00 101.19 131.79 101.24 131.57 101.28 L 131.10 101.35 L 106.53 104.07 C 106.38 104.07 106.24 104.07 106.10 104.07 L 105.47 104.07 C 105.37 104.08 105.26 104.08 105.16 104.07 L 105.00 104.07 L 104.72 104.07 L 104.55 104.07 L 104.31 104.07 L 104.12 104.07 L 103.95 104.07 L 103.66 103.97 L 103.44 103.89 L 103.34 103.89 L 103.01 103.73 C 102.52 103.47 102.14 103.05 101.93 102.54 C 101.88 102.39 101.86 102.24 101.86 102.09 L 101.86 105.34 C 101.86 105.49 101.88 105.64 101.93 105.78 C 102.14 106.30 102.52 106.72 103.02 106.97 L 103.34 107.14 L 103.45 107.14 C 103.49 107.17 103.54 107.19 103.59 107.20 L 103.67 107.20 L 103.95 107.30 L 104.07 107.30 L 104.13 107.30 L 104.32 107.30 L 104.48 107.30 L 104.56 107.30 L 104.72 107.30 L 104.87 107.30 L 106.11 107.30 L 106.47 107.30 L 106.54 107.30 L 131.12 104.62 C 131.26 104.61 131.41 104.59 131.55 104.56 L 131.55 104.56 C 131.77 104.52 131.98 104.47 132.19 104.40 L 132.25 104.40 L 132.38 104.40 C 132.47 104.37 132.56 104.34 132.65 104.30 L 132.84 104.22 C 132.92 104.18 133.00 104.14 133.07 104.09 L 133.17 104.09 L 133.27 104.02 L 133.37 103.96 C 133.45 103.90 133.53 103.84 133.60 103.77 L 133.65 103.77 L 133.65 103.77 C 133.71 103.72 133.76 103.66 133.80 103.60 C 133.83 103.57 133.86 103.54 133.89 103.51 L 133.89 103.51 C 133.95 103.44 134.00 103.36 134.05 103.28 L 134.05 103.23 C 134.05 103.17 134.05 103.11 134.13 103.04 C 134.12 103.01 134.12 102.97 134.13 102.94 C 134.14 102.92 134.14 102.89 134.13 102.87 L 134.13 102.87 C 134.14 102.80 134.14 102.72 134.13 102.65 L 134.13 99.16 C 134.13 99.26 134.13 99.36 134.13 99.46 C 134.13 99.56 134.20 99.52 134.18 99.54 Z" fill="url(#未命名的渐变_165-2)" fill-rule="nonzero" group-id="1" id="路径_1312" node-id="93" stroke="none" target-height="8.139999" target-width="32.319992" target-x="101.86" target-y="99.16"></path><path d="M 145.47 88.21 C 145.97 88.46 146.36 88.88 146.57 89.40 C 146.96 90.63 145.57 91.82 143.38 92.05 L 126.58 93.79 L 133.07 97.54 C 134.07 98.13 134.49 99.01 134.07 99.82 C 133.37 100.78 132.26 101.35 131.07 101.38 L 106.50 104.11 C 105.29 104.26 104.06 104.04 102.97 103.48 C 102.48 103.23 102.09 102.81 101.89 102.29 C 101.49 101.05 102.89 99.86 105.00 99.62 L 122.28 97.71 L 115.71 93.92 C 114.71 93.32 114.29 92.43 114.71 91.63 C 115.43 90.66 116.56 90.08 117.76 90.07 L 142.00 87.56 C 143.20 87.42 144.41 87.64 145.47 88.21 Z" fill="#b3ecce" fill-rule="nonzero" group-id="1" id="路径_1313" node-id="94" stroke="none" target-height="16.840004" target-width="45.47001" target-x="101.49" target-y="87.42"></path><path d="M 230.76 26.05 L 230.68 26.00 L 230.56 25.94 L 230.47 25.89 L 230.32 25.82 L 230.21 25.77 L 230.21 25.77 L 229.91 25.65 L 229.91 25.65 L 229.63 25.54 L 229.63 25.54 L 229.52 25.54 L 229.37 25.49 L 229.30 25.49 L 229.17 25.49 L 229.07 25.49 L 228.96 25.49 L 228.84 25.49 L 228.65 25.49 L 228.50 25.49 L 227.35 25.49 C 227.24 25.50 227.12 25.51 227.01 25.54 L 226.96 25.54 C 226.80 25.57 226.64 25.61 226.49 25.66 L 226.42 25.66 L 226.23 25.74 L 226.13 25.74 L 225.86 25.89 L 223.00 27.35 L 223.27 27.21 L 223.36 27.21 L 223.55 27.13 L 223.62 27.13 C 223.77 27.05 223.93 26.98 224.09 26.92 L 224.09 26.92 L 224.43 26.87 L 225.43 26.87 L 225.60 26.87 L 225.75 26.87 L 225.94 26.87 L 226.07 26.87 L 226.27 26.87 L 226.40 26.87 L 226.63 26.94 L 226.73 26.94 L 227.06 27.07 L 227.06 27.07 L 227.40 27.21 L 227.51 27.26 L 227.75 27.38 L 227.87 27.44 L 228.19 27.62 L 230.08 28.71 L 232.86 27.08 L 231.00 26.16 Z" fill="url(#未命名的渐变_165-3)" fill-rule="nonzero" group-id="1" id="路径_1314" node-id="95" stroke="none" target-height="3.2199993" target-width="9.860001" target-x="223" target-y="25.49"></path><path d="M 244.91 42.19 L 244.91 41.48 C 244.91 41.36 244.91 41.24 244.91 41.12 C 244.91 41.00 244.91 40.88 244.86 40.75 L 244.86 40.75 L 244.80 40.40 C 244.80 40.28 244.80 40.15 244.72 40.01 C 244.73 39.96 244.73 39.92 244.72 39.87 L 244.72 39.79 C 244.73 39.73 244.73 39.68 244.72 39.62 C 244.72 39.50 244.65 39.36 244.62 39.23 L 244.54 38.94 C 244.47 38.71 244.43 38.59 244.38 38.44 C 244.33 38.29 244.30 38.19 244.26 38.06 C 244.27 38.04 244.27 38.01 244.26 37.99 L 244.26 37.94 L 244.17 37.70 L 244.03 37.34 L 243.92 37.09 L 243.92 37.09 L 243.92 37.09 C 243.87 36.97 243.82 36.85 243.76 36.74 L 243.57 36.34 C 243.58 36.32 243.58 36.30 243.57 36.28 C 243.57 36.28 243.57 36.28 243.57 36.21 L 243.42 35.90 C 243.34 35.77 243.27 35.64 243.21 35.50 L 243.09 35.31 L 243.09 35.24 L 242.88 34.92 L 242.59 34.45 L 242.59 34.37 C 242.44 34.15 242.29 33.93 242.13 33.72 L 242.13 33.72 C 242.03 33.57 241.92 33.43 241.80 33.29 C 241.69 33.15 241.63 33.06 241.53 32.95 L 241.53 32.95 L 241.25 32.62 L 240.97 32.30 L 240.92 32.30 L 240.92 32.24 L 240.72 32.03 L 240.41 31.73 L 240.31 31.64 L 240.24 31.57 L 240.09 31.43 L 239.76 31.14 L 239.62 31.03 L 239.54 30.96 L 239.44 30.88 L 239.11 30.63 L 238.88 30.47 L 238.88 30.47 L 238.88 30.47 L 238.56 30.27 L 238.25 30.08 L 238.18 30.08 L 236.29 28.99 L 236.29 28.80 C 236.30 28.70 236.30 28.61 236.29 28.51 L 236.29 28.36 L 236.29 28.36 C 236.29 28.19 236.24 28.04 236.21 27.88 L 236.21 27.88 L 236.21 27.75 L 236.14 27.41 L 236.14 27.00 C 236.15 26.93 236.15 26.87 236.14 26.80 C 236.12 26.73 236.10 26.65 236.09 26.58 L 236.09 26.44 L 236.03 26.22 C 236.03 26.17 236.03 26.12 236.03 26.07 L 235.97 25.87 L 235.91 25.66 L 235.91 25.55 L 235.82 25.27 L 235.76 25.10 L 235.76 25.05 C 235.76 24.88 235.65 24.72 235.59 24.55 L 235.59 24.55 L 235.59 24.49 L 235.43 24.09 L 235.43 24.02 L 235.36 23.84 C 235.33 23.76 235.30 23.68 235.27 23.60 L 235.20 23.46 L 235.12 23.27 L 235.06 23.13 L 234.95 22.90 L 234.86 22.70 L 234.86 22.62 C 234.81 22.51 234.75 22.41 234.70 22.30 C 234.67 22.25 234.65 22.20 234.63 22.14 L 234.63 22.14 L 234.53 21.95 L 234.32 21.55 L 234.32 21.50 L 234.32 21.42 L 233.87 20.62 C 233.87 20.62 233.87 20.57 233.82 20.54 L 233.82 20.54 C 233.69 20.33 233.56 20.11 233.42 19.90 L 233.35 19.80 C 233.24 19.62 233.13 19.44 233.01 19.27 L 233.01 19.21 L 232.95 19.12 C 232.76 18.84 232.55 18.57 232.37 18.30 L 232.37 18.30 L 232.37 18.30 C 232.23 18.10 232.07 17.90 231.92 17.70 L 231.92 17.70 L 231.76 17.51 L 231.52 17.20 L 231.52 17.15 L 231.35 16.96 L 231.12 16.68 L 231.07 16.68 L 230.90 16.49 L 230.66 16.22 L 230.66 16.16 L 230.50 16.00 L 230.24 15.72 L 230.17 15.65 L 230.02 15.51 L 229.74 15.23 L 229.66 15.14 L 229.53 15.02 L 229.23 14.75 L 229.12 14.64 L 229.01 14.55 L 228.70 14.28 L 228.57 14.17 L 228.48 14.09 L 228.18 13.85 L 228.03 13.72 L 227.95 13.66 L 227.64 13.43 L 227.48 13.30 L 227.41 13.30 L 227.13 13.10 L 226.94 12.96 L 226.89 12.96 L 226.61 12.78 L 226.41 12.65 L 226.35 12.65 L 226.10 12.50 L 225.88 12.37 L 225.76 12.30 L 225.36 12.07 L 225.23 12.01 L 225.02 11.89 L 224.85 11.81 L 224.65 11.71 L 224.45 11.62 L 224.19 11.62 L 223.87 11.49 L 223.72 11.42 L 223.72 11.42 L 223.22 11.23 L 223.22 11.23 L 223.10 11.23 L 222.74 11.11 L 222.67 11.11 L 222.47 11.05 L 222.23 10.99 L 222.13 10.99 L 221.90 10.93 L 221.72 10.93 L 221.60 10.93 L 221.35 10.93 L 221.20 10.93 L 220.00 10.93 L 219.74 10.93 L 218.40 10.93 C 218.20 10.93 218.01 10.93 217.81 11.01 L 217.81 11.01 C 217.68 11.03 217.55 11.06 217.42 11.10 L 217.35 11.10 L 217.04 11.19 L 217.04 11.19 C 216.94 11.22 216.84 11.26 216.74 11.31 L 216.59 11.37 L 216.17 11.59 L 213.37 13.22 C 213.50 13.14 213.64 13.06 213.79 13.00 L 213.94 12.94 C 214.04 12.89 214.14 12.85 214.24 12.82 L 214.58 12.70 L 214.65 12.70 L 215.07 12.60 L 215.66 12.52 L 216.73 12.52 L 216.99 12.52 L 217.26 12.52 L 217.54 12.52 L 217.78 12.52 L 218.09 12.58 L 218.32 12.63 L 218.66 12.71 L 218.85 12.77 L 219.28 12.90 L 219.40 12.90 L 219.95 13.11 L 220.10 13.17 L 220.50 13.36 L 220.69 13.45 L 221.07 13.64 L 221.28 13.75 L 221.81 14.04 L 222.15 14.25 L 222.41 14.40 L 222.67 14.57 L 222.94 14.75 L 223.19 14.93 L 223.47 15.12 L 223.70 15.30 L 224.01 15.53 L 224.24 15.72 L 224.54 15.96 L 224.76 16.15 L 225.07 16.42 L 225.29 16.62 L 225.58 16.89 L 225.80 17.10 L 226.00 17.00 L 226.21 17.22 C 226.31 17.31 226.39 17.41 226.48 17.50 L 226.69 17.72 L 226.93 17.99 L 227.14 18.23 L 227.38 18.51 L 227.58 18.75 L 227.83 19.05 L 228.02 19.28 C 228.17 19.48 228.33 19.68 228.47 19.88 C 228.47 19.90 228.47 19.91 228.47 19.93 L 229.05 20.72 L 229.15 20.87 L 229.49 21.40 C 229.52 21.43 229.54 21.46 229.56 21.50 C 229.70 21.71 229.82 21.93 229.96 22.14 L 230.03 22.26 L 230.48 23.05 L 230.55 23.20 L 230.76 23.59 L 230.87 23.81 L 231.00 24.00 C 231.07 24.13 231.13 24.26 231.19 24.40 C 231.22 24.46 231.25 24.53 231.28 24.60 L 231.45 24.97 L 231.53 25.16 L 231.68 25.53 L 231.76 25.72 L 231.94 26.20 L 231.94 26.28 C 232.01 26.46 232.07 26.65 232.13 26.83 L 232.18 27.00 L 232.30 27.40 L 232.36 27.61 C 232.36 27.68 232.43 27.85 232.46 27.96 L 232.52 28.18 L 232.61 28.54 L 232.61 28.74 C 232.65 28.88 232.68 29.02 232.70 29.17 L 232.70 29.29 L 232.79 29.83 L 232.79 30.00 C 232.79 30.16 232.79 30.32 232.86 30.48 L 234.75 31.57 C 235.00 31.71 235.25 31.87 235.48 32.04 L 235.48 32.04 C 235.70 32.20 235.92 32.36 236.14 32.54 L 236.21 32.60 C 236.43 32.77 236.63 32.95 236.84 33.14 L 236.91 33.21 C 237.12 33.40 237.32 33.61 237.52 33.82 L 237.57 33.87 L 238.19 34.57 L 238.19 34.57 L 238.79 35.34 L 238.79 35.34 L 239.30 36.07 C 239.40 36.22 239.50 36.38 239.59 36.54 L 239.84 36.94 L 239.95 37.13 L 240.32 37.81 L 240.32 37.88 C 240.46 38.17 240.59 38.45 240.72 38.74 L 240.72 38.74 C 240.84 39.02 240.96 39.31 241.06 39.58 L 241.06 39.64 C 241.17 39.93 241.27 40.22 241.35 40.51 L 241.35 40.51 C 241.44 40.79 241.51 41.08 241.58 41.35 L 241.58 41.43 C 241.64 41.72 241.70 42.00 241.74 42.30 L 241.74 42.30 C 241.74 42.58 241.82 42.86 241.85 43.16 L 241.85 43.23 C 241.85 43.51 241.85 43.80 241.85 44.08 C 241.87 44.34 241.87 44.61 241.85 44.87 L 241.85 45.00 C 241.85 45.24 241.79 45.46 241.75 45.68 C 241.76 45.71 241.76 45.74 241.75 45.77 C 241.75 45.98 241.65 46.18 241.60 46.38 L 241.60 46.48 C 241.54 46.66 241.47 46.84 241.39 47.01 L 241.39 47.01 C 241.30 47.20 241.20 47.38 241.09 47.55 C 241.09 47.55 241.09 47.55 241.09 47.61 C 241.00 47.75 240.91 47.88 240.80 48.01 L 240.69 48.13 C 240.61 48.22 240.51 48.32 240.42 48.40 L 240.30 48.50 C 240.17 48.61 240.03 48.70 239.88 48.79 L 242.66 47.17 C 242.81 47.08 242.95 46.98 243.09 46.87 L 243.21 46.77 L 243.48 46.50 L 243.59 46.38 C 243.69 46.25 243.79 46.12 243.88 45.98 L 243.88 45.92 L 243.88 45.92 C 243.99 45.76 244.08 45.59 244.16 45.42 L 244.16 45.42 L 244.16 45.36 L 244.31 45.02 L 244.37 44.84 L 244.37 44.73 C 244.38 44.70 244.38 44.66 244.37 44.63 C 244.41 44.51 244.45 44.39 244.47 44.26 C 244.46 44.21 244.46 44.17 244.47 44.12 C 244.47 44.12 244.47 44.06 244.47 44.03 C 244.46 43.99 244.46 43.94 244.47 43.90 C 244.47 43.78 244.47 43.67 244.47 43.55 C 244.46 43.48 244.46 43.42 244.47 43.35 L 244.47 43.19 C 244.46 43.08 244.46 42.96 244.47 42.85 C 244.49 42.73 244.49 42.61 244.47 42.49 L 244.47 42.49 C 244.57 42.53 244.68 42.52 244.77 42.46 C 244.86 42.40 244.91 42.30 244.91 42.19 Z" fill="url(#未命名的渐变_165-4)" fill-rule="nonzero" group-id="1" id="路径_1315" node-id="96" stroke="none" target-height="37.86" target-width="31.540009" target-x="213.37" target-y="10.93"></path><path d="M 221.70 13.66 C 227.68 17.37 231.77 23.48 232.92 30.42 L 234.81 31.51 C 239.13 34.31 241.85 39.02 242.11 44.16 C 242.11 48.81 238.81 50.68 234.76 48.34 L 208.49 33.17 C 204.17 30.36 201.46 25.66 201.18 20.52 C 201.18 15.87 204.49 14.00 208.54 16.33 L 210.43 17.42 C 211.18 12.05 216.00 10.33 221.70 13.66 Z" fill="#f4b76e" fill-rule="nonzero" group-id="1" id="路径_1316" node-id="97" stroke="none" target-height="37.364334" target-width="40.930008" target-x="201.18" target-y="11.961481"></path><path d="M 184.29 14.08 L 184.22 14.08 L 184.13 14.08 L 184.07 14.08 L 183.96 14.03 L 183.89 14.03 L 183.89 14.03 L 183.69 13.95 L 183.69 13.95 L 183.48 13.88 L 183.48 13.88 L 183.41 13.88 L 183.30 13.88 L 183.30 13.88 L 183.21 13.88 L 181.80 13.88 C 181.72 13.87 181.63 13.87 181.55 13.88 L 181.55 13.88 L 181.22 13.96 L 181.22 13.96 L 181.08 14.01 L 181.02 14.01 L 180.83 14.10 L 178.83 15.10 L 179.02 15.01 L 179.08 15.01 L 179.22 15.01 L 179.27 15.01 L 179.60 14.93 L 179.60 14.93 C 179.68 14.93 179.76 14.93 179.84 14.93 L 180.76 14.93 L 180.90 14.93 L 181.00 14.93 L 181.15 14.93 L 181.24 14.93 L 181.40 14.93 L 181.47 14.93 L 181.71 15.01 L 181.71 15.01 L 181.95 15.10 L 182.02 15.10 L 182.19 15.18 L 182.27 15.18 L 182.50 15.29 L 183.84 15.99 L 185.84 14.99 L 184.50 14.19 Z" fill="url(#未命名的渐变_165-5)" fill-rule="nonzero" group-id="1" id="路径_1317" node-id="98" stroke="none" target-height="2.1099997" target-width="7.0099945" target-x="178.83" target-y="13.88"></path><path d="M 188.57 20.29 L 188.57 19.83 C 188.58 19.75 188.58 19.68 188.57 19.60 C 188.57 19.52 188.57 19.44 188.57 19.36 L 188.57 19.36 C 188.57 19.29 188.57 19.21 188.57 19.14 C 188.57 19.07 188.57 18.98 188.51 18.90 C 188.45 18.82 188.51 18.84 188.51 18.81 L 188.51 18.81 C 188.51 18.77 188.51 18.74 188.51 18.70 C 188.51 18.62 188.46 18.54 188.43 18.45 L 188.37 18.27 L 188.37 18.21 C 188.37 18.13 188.32 18.05 188.29 17.96 L 188.20 17.72 L 188.20 17.60 L 188.13 17.45 C 188.13 17.37 188.06 17.29 188.03 17.22 C 188.01 17.16 187.98 17.10 187.95 17.05 L 187.95 17.00 C 187.92 16.92 187.88 16.85 187.84 16.78 L 187.70 16.53 L 187.70 16.53 C 187.69 16.51 187.69 16.50 187.70 16.48 L 187.58 16.29 L 187.43 16.05 L 187.36 15.93 L 187.36 15.88 L 187.21 15.68 L 187.01 15.37 L 187.01 15.37 C 186.91 15.22 186.80 15.08 186.68 14.95 L 186.68 14.95 L 186.45 14.67 L 186.26 14.46 L 186.26 14.46 L 186.07 14.25 L 185.86 14.04 L 185.86 14.04 L 185.86 14.04 L 185.71 13.91 L 185.50 13.72 L 185.42 13.66 L 185.37 13.66 L 185.26 13.57 L 185.03 13.38 L 184.93 13.30 L 184.93 13.30 L 184.50 13.00 L 184.28 12.84 L 184.11 12.74 L 184.11 12.74 L 184.11 12.74 L 183.89 12.61 L 183.66 12.49 L 183.66 12.49 L 182.33 11.79 L 182.33 11.66 C 182.34 11.60 182.34 11.53 182.33 11.47 L 182.33 11.36 L 182.27 11.05 L 182.27 11.05 L 182.27 10.97 C 182.26 10.90 182.24 10.82 182.22 10.75 L 182.22 10.70 L 182.22 10.57 L 182.22 10.43 L 182.22 10.34 C 182.23 10.29 182.23 10.25 182.22 10.20 C 182.23 10.17 182.23 10.13 182.22 10.10 L 182.22 9.97 L 182.22 9.84 L 182.22 9.74 L 182.16 9.56 L 182.16 9.45 L 182.16 9.45 L 182.04 9.13 L 182.04 9.13 L 182.04 9.13 L 181.93 8.87 L 181.93 8.82 C 181.93 8.82 181.93 8.74 181.88 8.70 L 181.81 8.56 C 181.81 8.53 181.81 8.49 181.81 8.46 L 181.74 8.34 L 181.74 8.25 L 181.12 8.00 C 181.12 8.00 181.12 7.92 181.06 7.88 L 181.06 7.88 L 180.95 7.67 C 180.95 7.67 180.95 7.61 180.89 7.57 L 180.89 7.57 L 180.83 7.45 L 180.67 7.19 L 180.67 7.19 L 180.67 7.14 C 180.58 6.97 180.47 6.80 180.36 6.63 L 180.36 6.63 L 180.36 6.63 C 180.27 6.49 180.17 6.36 180.08 6.24 L 179.92 6.00 L 179.68 5.66 L 179.68 5.66 C 179.68 5.66 179.68 5.66 179.63 5.66 L 179.24 5.14 L 179.24 5.14 L 179.24 5.14 L 178.91 4.74 L 178.91 4.74 L 178.80 4.62 L 178.63 4.43 L 178.63 4.43 L 178.51 4.31 L 178.25 4.00 L 178.25 4.00 L 178.13 3.88 L 177.96 3.71 L 177.96 3.71 L 177.86 3.61 L 177.67 3.43 L 177.62 3.43 L 177.51 3.35 L 177.24 3.00 L 177.18 3.00 L 177.09 2.93 L 176.88 2.75 L 176.80 2.68 L 176.72 2.62 L 176.20 2.38 L 176.11 2.31 L 176.04 2.31 C 175.97 2.25 175.90 2.20 175.83 2.15 L 175.72 2.00 L 175.67 2.00 L 175.45 1.85 L 175.33 1.77 L 175.33 1.77 L 175.13 1.64 L 175.00 1.46 L 175.00 1.46 L 174.81 1.35 L 174.66 1.26 L 174.66 1.26 L 174.48 1.16 L 174.21 1.00 L 174.12 1.00 L 173.81 0.85 L 173.72 0.85 L 173.57 0.78 L 173.45 0.78 L 173.30 0.60 L 173.16 0.54 L 173.09 0.54 L 172.88 0.47 L 172.77 0.47 L 172.77 0.47 L 172.42 0.35 L 172.42 0.35 L 172.34 0.35 L 172.09 0.28 L 172.00 0.28 L 171.86 0.28 L 171.70 0.28 L 171.62 0.28 L 171.45 0.28 C 171.41 0.29 171.37 0.29 171.33 0.28 L 171.24 0.28 L 171.06 0.28 L 169.74 0.28 C 169.61 0.28 169.47 0.30 169.34 0.33 L 169.34 0.33 L 169.05 0.39 L 169.05 0.39 L 168.83 0.45 L 168.83 0.45 L 168.62 0.53 L 168.52 0.53 C 168.42 0.57 168.32 0.62 168.22 0.67 L 166.22 1.67 L 166.53 1.53 L 166.63 1.53 L 166.84 1.45 L 167.07 1.38 L 167.07 1.38 L 167.38 1.31 L 167.79 1.26 L 168.74 1.26 L 168.93 1.26 L 169.13 1.26 L 169.30 1.26 L 169.52 1.26 L 169.68 1.26 L 169.92 1.32 L 170.06 1.32 L 170.37 1.41 L 170.44 1.41 L 170.84 1.55 L 170.95 1.55 L 171.24 1.66 L 171.38 1.72 L 171.65 1.84 L 171.79 1.91 L 172.17 2.10 L 172.41 2.23 L 172.59 2.33 C 172.66 2.36 172.72 2.40 172.78 2.44 L 172.97 2.56 L 173.15 2.67 L 173.35 2.79 L 173.51 2.91 L 173.72 3.05 L 173.89 3.17 L 174.10 3.33 L 174.26 3.45 L 174.47 3.62 L 174.63 3.74 L 174.84 3.92 L 175.00 4.00 L 175.20 4.18 L 175.35 4.32 L 175.54 4.50 L 175.69 4.64 L 175.86 4.81 L 176.00 5.00 L 176.16 5.18 L 176.31 5.34 L 176.48 5.53 L 176.61 5.68 C 176.72 5.80 176.83 5.93 176.93 6.07 L 176.93 6.07 C 177.07 6.24 177.21 6.42 177.33 6.59 L 177.33 6.67 L 177.58 7.01 L 177.63 7.08 L 177.90 7.48 L 177.90 7.55 L 178.22 8.06 L 178.22 8.15 L 178.37 8.41 L 178.45 8.55 C 178.44 8.58 178.44 8.62 178.45 8.65 L 178.59 8.91 L 178.65 9.04 L 178.77 9.27 L 178.83 9.39 C 178.86 9.47 178.90 9.55 178.94 9.63 L 178.94 9.75 L 179.07 10.06 L 179.07 10.06 L 179.20 10.42 C 179.20 10.46 179.20 10.49 179.20 10.53 L 179.29 10.78 C 179.28 10.82 179.28 10.87 179.29 10.91 C 179.29 10.91 179.29 11.06 179.36 11.14 C 179.43 11.22 179.36 11.23 179.36 11.27 L 179.42 11.51 C 179.43 11.55 179.43 11.59 179.42 11.63 C 179.42 11.63 179.47 11.82 179.49 11.91 L 179.49 11.99 L 179.55 12.33 L 179.55 12.42 C 179.56 12.52 179.57 12.63 179.60 12.73 L 180.93 13.43 C 181.11 13.52 181.28 13.61 181.46 13.72 L 181.46 13.72 L 181.93 14.04 L 181.98 14.04 L 182.42 14.39 L 182.42 14.44 C 182.57 14.56 182.71 14.69 182.85 14.83 L 182.85 14.83 C 183.00 14.97 183.14 15.12 183.29 15.28 L 183.29 15.28 L 183.71 15.77 L 183.71 15.77 L 184.07 16.23 L 184.28 16.53 C 184.33 16.62 184.39 16.70 184.45 16.79 L 184.53 16.91 L 184.78 17.35 C 184.78 17.35 184.78 17.35 184.78 17.35 C 184.88 17.53 184.97 17.71 185.06 17.90 L 185.06 17.90 C 185.15 18.08 185.23 18.27 185.30 18.45 L 185.30 18.45 C 185.38 18.64 185.45 18.83 185.51 19.02 L 185.51 19.02 C 185.57 19.20 185.62 19.38 185.67 19.56 L 185.67 19.56 C 185.67 19.75 185.76 19.94 185.79 20.11 L 185.79 20.11 C 185.79 20.30 185.84 20.48 185.86 20.66 L 185.86 21.00 C 185.86 21.19 185.86 21.36 185.86 21.54 C 185.87 21.71 185.87 21.88 185.86 22.05 L 185.86 22.05 C 185.86 22.19 185.86 22.34 185.79 22.48 L 185.79 22.54 C 185.79 22.68 185.72 22.81 185.68 22.94 L 185.68 23.01 C 185.68 23.12 185.59 23.23 185.54 23.34 L 185.54 23.34 C 185.48 23.46 185.41 23.57 185.33 23.68 L 185.33 23.68 C 185.27 23.76 185.20 23.84 185.13 23.92 L 185.05 24.00 L 184.86 24.17 L 184.77 24.24 C 184.68 24.31 184.58 24.37 184.48 24.43 L 186.48 23.38 C 186.58 23.33 186.69 23.27 186.78 23.20 L 186.86 23.13 L 187.06 22.96 L 187.14 22.88 C 187.21 22.80 187.28 22.72 187.34 22.64 L 187.34 22.64 L 187.34 22.64 C 187.41 22.54 187.48 22.43 187.53 22.32 L 187.53 22.32 L 187.53 22.32 L 187.64 22.10 L 187.64 21.99 L 187.64 21.92 C 187.63 21.90 187.63 21.87 187.64 21.85 C 187.68 21.78 187.70 21.70 187.72 21.62 C 187.72 21.54 187.72 21.56 187.72 21.53 L 187.72 21.50 C 187.71 21.47 187.71 21.45 187.72 21.42 L 187.72 21.19 L 187.72 20.51 L 187.72 20.51 C 188.57 20.43 188.57 20.35 188.57 20.29 Z" fill="url(#未命名的渐变_165-6)" fill-rule="nonzero" group-id="1" id="路径_1318" node-id="99" stroke="none" target-height="24.15" target-width="22.350006" target-x="166.22" target-y="0.28"></path><path d="M 172.13 2.00 C 176.24 4.22 179.15 8.15 180.07 12.73 L 181.41 13.44 C 184.38 15.10 186.32 18.14 186.58 21.53 C 186.58 24.53 184.24 25.71 181.37 24.20 L 162.76 14.49 C 159.79 12.82 157.85 9.78 157.59 6.39 C 157.59 3.39 159.93 2.22 162.80 3.72 L 164.14 4.42 C 164.67 1.00 168.00 -0.11 172.13 2.00 Z" fill="#f4b76e" fill-rule="nonzero" group-id="1" id="路径_1319" node-id="100" stroke="none" target-height="23.919119" target-width="28.990005" target-x="157.59" target-y="0.9239373"></path><path d="M 242.56 75.45 C 243.40 74.93 243.35 73.45 242.39 71.91 C 242.18 71.55 241.94 71.22 241.66 70.91 C 241.98 70.55 241.90 69.80 241.44 69.05 C 241.07 68.39 240.41 67.93 239.66 67.81 C 239.12 64.15 236.98 60.92 233.82 59.00 C 232.55 58.05 230.87 57.84 229.40 58.43 L 227.51 59.54 C 226.64 58.95 225.52 58.86 224.56 59.30 L 222.56 60.45 C 221.90 60.92 221.54 61.70 221.62 62.51 C 221.88 65.20 223.40 67.62 225.73 69.00 L 238.61 76.51 C 239.15 76.87 239.83 76.94 240.43 76.71 C 240.49 76.69 240.55 76.66 240.60 76.62 Z" fill="url(#未命名的渐变_165-7)" fill-rule="nonzero" group-id="1" id="路径_1320" node-id="101" stroke="none" target-height="18.695847" target-width="21.530014" target-x="221.62" target-y="58.13465"></path><path d="M 240.42 73.08 C 240.20 72.74 239.96 72.43 239.68 72.14 C 240.00 71.77 239.93 71.02 239.46 70.28 C 239.10 69.61 238.44 69.15 237.68 69.05 C 237.15 65.37 235.01 62.13 231.83 60.20 C 229.16 58.64 226.92 59.12 226.21 61.20 L 225.73 60.89 C 223.48 59.58 221.65 60.34 221.65 62.59 C 221.92 65.25 223.44 67.63 225.73 69.00 L 238.61 76.50 C 239.15 76.85 239.83 76.92 240.43 76.70 C 241.42 76.29 241.42 74.67 240.42 73.08 Z" fill="#f4b76e" fill-rule="nonzero" group-id="1" id="路径_1321" node-id="102" stroke="none" target-height="17.52095" target-width="19.521255" target-x="221.65" target-y="59.293533"></path><path d="M 45.60 14.15 L 45.74 14.10 L 45.82 14.10 L 46.39 14.10 L 46.50 14.10 L 46.50 14.10 L 46.63 14.17 L 44.58 13.00 L 44.58 13.00 L 44.48 13.00 L 43.70 13.00 L 43.57 13.00 L 43.46 13.00 L 43.46 13.00 L 43.21 13.11 L 1.82 35.61 L 1.52 35.82 L 1.52 35.82 C 1.42 35.89 1.33 35.97 1.24 36.06 L 1.24 36.06 L 1.24 36.06 L 1.00 36.25 L 1.00 36.25 L 1.00 36.25 L 0.93 36.34 C 0.93 36.34 0.93 36.34 0.93 36.41 L 0.93 36.41 L 0.87 36.48 L 0.87 36.55 L 0.81 36.64 L 0.81 36.64 L 0.81 36.64 L 0.48 37.00 L 0.48 37.00 L 0.48 37.00 C 0.48 37.00 0.48 37.08 0.42 37.12 L 0.42 37.12 L 0.42 37.18 L 0.42 37.24 L 0.36 37.37 L 0.36 37.37 L 0.36 37.37 L 0.29 37.55 L 0.29 37.64 C 0.29 37.67 0.29 37.70 0.29 37.73 L 0.29 37.80 L 0.10 38.00 L 0.10 38.05 C 0.10 38.08 0.10 38.10 0.10 38.13 L 0.10 38.23 L 0.10 38.34 C 0.12 38.39 0.12 38.44 0.10 38.49 L 0.10 38.49 L 0.10 38.49 C 0.10 38.60 0.10 38.71 0.10 38.83 L 0.17 64.23 C 0.12 64.72 0.34 65.19 0.74 65.47 L 2.82 66.68 C 2.42 66.40 2.21 65.92 2.26 65.44 L 2.00 40.15 C 1.99 40.04 1.99 39.92 2.00 39.81 L 2.00 39.73 C 1.99 39.68 1.99 39.63 2.00 39.58 L 2.00 39.47 L 2.00 39.37 L 2.00 39.23 L 2.00 39.15 L 2.16 39.00 L 2.16 38.93 C 2.18 38.86 2.21 38.79 2.25 38.72 L 2.25 38.72 C 2.27 38.66 2.30 38.60 2.33 38.54 L 2.33 38.47 C 2.36 38.41 2.39 38.35 2.42 38.30 L 2.42 38.30 L 2.54 38.10 L 2.65 38.10 L 2.75 37.96 L 2.75 37.89 L 2.84 37.78 L 2.92 37.68 L 2.99 37.60 L 3.12 37.47 C 3.12 37.47 3.12 37.47 3.18 37.40 L 3.46 37.16 L 3.51 37.16 C 3.60 37.09 3.70 37.02 3.81 36.96 L 45.27 14.28 L 45.51 14.16 Z" fill="url(#未命名的渐变_165-8)" fill-rule="nonzero" group-id="1" id="路径_1322" node-id="103" stroke="none" target-height="53.68" target-width="46.530003" target-x="0.1" target-y="13"></path><path d="M 45.27 14.28 C 46.34 13.66 47.21 14.16 47.21 15.39 L 47.29 40.78 C 47.21 42.14 46.49 43.38 45.35 44.13 L 4.00 66.66 C 2.93 67.27 2.06 66.78 2.06 65.55 L 2.00 40.15 C 2.07 38.79 2.80 37.55 3.94 36.81 Z" fill="#f4b76e" fill-rule="nonzero" group-id="1" id="路径_1323" node-id="104" stroke="none" target-height="52.904392" target-width="45.29" target-x="2" target-y="14.015637"></path><path d="M 16.06 45.20 L 17.53 44.72 L 20.53 40.96 C 20.41 40.67 20.26 40.40 20.09 40.14 L 16.15 45.14 Z M 13.94 38.11 L 13.94 39.42 L 15.13 37.88 C 14.73 37.92 14.33 38.00 13.94 38.11 Z M 20.16 43.86 L 21.00 42.77 C 20.95 42.41 20.87 42.05 20.76 41.70 L 18.70 44.36 Z M 17.70 38.20 L 13.94 43.00 L 13.94 44.39 L 18.48 38.62 C 18.23 38.46 17.96 38.33 17.69 38.22 Z M 16.00 37.85 L 13.90 40.50 L 13.90 41.88 L 17.00 38.00 C 16.67 37.93 16.34 37.88 16.00 37.87 Z M 19.61 39.59 C 19.42 39.38 19.22 39.18 19.00 39.00 L 13.90 45.45 L 13.90 45.91 L 14.90 45.59 Z M 13.19 38.33 C 9.00 40.19 6.23 44.28 6.07 48.87 C 6.01 50.52 6.58 52.14 7.66 53.39 L 13.23 46.39 Z M 13.67 46.74 L 8.12 53.83 C 9.68 55.03 11.75 55.33 13.59 54.62 C 17.87 52.93 20.79 48.92 21.09 44.33 Z" fill="#ffffff" fill-opacity="0.7" fill-rule="nonzero" group-id="1,4" id="路径_1324" node-id="106" stroke-linecap="butt" stroke-opacity="0.7" stroke-width="1" target-height="17.1129" target-width="15.02" target-x="6.07" target-y="37.85"></path><path d="M 43.48 25.00 L 26.15 34.09 C 25.63 34.37 25.21 34.09 25.21 33.54 L 25.21 33.37 C 25.24 32.73 25.60 32.14 26.15 31.81 L 43.48 22.74 C 44.01 22.46 44.41 22.74 44.41 23.29 L 44.41 23.47 C 44.36 24.10 44.01 24.66 43.48 25.00 Z" fill="#ffffff" fill-opacity="0.7" fill-rule="nonzero" group-id="1,5" id="路径_1325" node-id="107" stroke-linecap="butt" stroke-opacity="0.7" stroke-width="1" target-height="11.494774" target-width="19.2" target-x="25.21" target-y="22.70544"></path><path d="M 39.77 34.40 L 26.15 41.46 C 25.63 41.74 25.21 41.46 25.21 40.91 L 25.21 40.74 C 25.26 40.10 25.61 39.53 26.15 39.19 L 39.77 32.11 C 40.30 31.83 40.72 32.11 40.72 32.65 L 40.72 32.83 C 40.68 33.48 40.32 34.06 39.77 34.40 Z" fill="#ffffff" fill-opacity="0.7" fill-rule="nonzero" group-id="1,6" id="路径_1326" node-id="108" stroke-linecap="butt" stroke-opacity="0.7" stroke-width="1" target-height="9.570627" target-width="15.510002" target-x="25.21" target-y="31.999582"></path><path d="M 39.29 41.94 L 26.46 48.64 C 25.94 48.92 25.52 48.64 25.52 48.10 L 25.52 47.94 C 25.63 47.21 25.96 46.54 26.46 46.00 L 39.29 39.28 C 39.81 39.37 40.29 39.61 40.29 40.19 L 40.29 40.38 C 40.23 41.03 39.86 41.62 39.29 41.94 Z" fill="#ffffff" fill-opacity="0.7" fill-rule="nonzero" group-id="1,7" id="路径_1327" node-id="109" stroke-linecap="butt" stroke-opacity="0.7" stroke-width="1" target-height="9.470409" target-width="14.77" target-x="25.52" target-y="39.28"></path></g></svg>