<?xml version="1.0" standalone="no"?><!DOCTYPE svg PUBLIC "-//W3C//DTD SVG 1.1//EN" "http://www.w3.org/Graphics/SVG/1.1/DTD/svg11.dtd"><svg t="1681351864367" class="icon" viewBox="0 0 1024 1024" version="1.1" xmlns="http://www.w3.org/2000/svg" p-id="19666" xmlns:xlink="http://www.w3.org/1999/xlink" width="128" height="128"><path d="M804.5 460.9c8.2 0 15.9 3.2 21.7 9.1 5.9 5.9 9.1 13.6 9.1 21.7v391.5c0 8.2-3.2 15.9-9.1 21.7-5.9 5.9-13.6 9.1-21.7 9.1H217.7c-8.2 0-15.9-3.2-21.7-9.1-5.9-5.9-9.1-13.6-9.1-21.7V491.7c0-8.2 3.2-15.9 9.1-21.7 5.9-5.9 13.6-9.1 21.7-9.1h586.8m0-40H217.7c-39 0-70.8 31.9-70.8 70.8v391.5c0 39 31.9 70.8 70.8 70.8h586.8c39 0 70.8-31.9 70.8-70.8V491.7c0.1-39-31.8-70.8-70.8-70.8z" fill="#515151" p-id="19667" data-spm-anchor-id="a313x.7781069.0.i25" class=""></path><path d="M510.7 612.3m-54.4 0a54.4 54.4 0 1 0 108.8 0 54.4 54.4 0 1 0-108.8 0Z" fill="#00D8A0" p-id="19668" style="
    color: #515151;
"></path><path d="M510.7 811.8c-13.6 0-24.8-11.2-24.8-24.8V658.8c0-13.6 11.2-24.8 24.8-24.8 13.6 0 24.8 11.2 24.8 24.8V787c0 13.6-11.2 24.8-24.8 24.8z" fill="#00D8A0" p-id="19669" data-spm-anchor-id="a313x.7781069.0.i28" class=""></path><path d="M763.6 356c-11 0-20-9-20-20 0-127.1-103.4-230.5-230.5-230.5-127.1 0.1-230.5 103.4-230.5 230.5 0 11-9 20-20 20s-20-9-20-20c0-72.2 28.1-140.2 79.2-191.2 51.1-51.1 119-79.2 191.2-79.2s140.2 28.1 191.2 79.2 79.2 119 79.2 191.2c0.2 11.1-8.8 20-19.8 20z" fill="#515151" p-id="19670" data-spm-anchor-id="a313x.7781069.0.i26" class=""></path><path d="M262.6 455.9c-11 0-20-9-20-20V325.7c0-11 9-20 20-20s20 9 20 20v110.2c0 11.1-8.9 20-20 20z" fill="#515151" p-id="19671" data-spm-anchor-id="a313x.7781069.0.i27" class=""></path></svg>