<?xml version="1.0" standalone="no"?><!DOCTYPE svg PUBLIC "-//W3C//DTD SVG 1.1//EN" "http://www.w3.org/Graphics/SVG/1.1/DTD/svg11.dtd"><svg t="1681542270943" class="icon" viewBox="0 0 1024 1024" version="1.1" xmlns="http://www.w3.org/2000/svg" p-id="17884" width="128" height="128" xmlns:xlink="http://www.w3.org/1999/xlink"><path d="M930.6 336.5c-22.6-53.5-55-101.6-96.3-142.9-41.3-41.3-89.3-73.7-142.9-96.3C636 73.9 577.1 62 516.4 62s-119.5 11.9-175 35.3c-53.5 22.6-101.6 55.1-142.9 96.3-41.3 41.3-73.7 89.3-96.3 142.9-23.4 55.4-35.3 114.3-35.3 175s11.9 119.5 35.3 175c22.6 53.5 55.1 101.6 96.3 142.9s89.3 73.7 142.9 96.3c55.4 23.4 114.3 35.3 175 35.3s119.5-11.9 175-35.3C745 903 793 870.6 834.3 829.3 875.6 788 908 740 930.6 686.4c23.4-55.4 35.3-114.3 35.3-175s-11.8-119.5-35.3-174.9zM516.4 913C295 913 114.9 732.9 114.9 511.5S295 110 516.4 110s401.5 180.1 401.5 401.5C918 732.9 737.9 913 516.4 913z" fill="#AAAAAA" p-id="17885"></path><path d="M616.7 559.9c-8.2-7.4-20.1-14.8-35.9-22.4 43.1-5.9 75-19.8 95.7-41.7 20.6-21.9 31-48.8 31-80.7 0-24.7-6.2-47.3-18.7-67.8-12.5-20.4-29.1-34.7-50-42.8-20.9-8.1-51.3-12.1-91.4-12.1H348V742h59.5V542.5h69c15.3 0 26.4 0.7 33.1 2.1 9.2 2.3 18.2 6.2 27.1 12 8.9 5.7 19 15.7 30.2 30.1 11.2 14.3 25.6 35 42.9 62l59.5 93.5h74.8l-78.2-122.4c-15.4-24-31.8-43.9-49.2-59.9z m-81.3-69H407.5V342.2h142.3c33.3 0 57.7 6.9 73.1 20.5 15.4 13.7 23.2 31.2 23.2 52.4 0 14.5-4 28-12 40.3-8 12.4-19.6 21.4-35 27-15.2 5.7-36.5 8.5-63.7 8.5z" fill="#AAAAAA" p-id="17886"></path></svg>