<?xml version="1.0" standalone="no"?><!DOCTYPE svg PUBLIC "-//W3C//DTD SVG 1.1//EN" "http://www.w3.org/Graphics/SVG/1.1/DTD/svg11.dtd"><svg t="1681352566451" class="icon" viewBox="0 0 1024 1024" version="1.1" xmlns="http://www.w3.org/2000/svg" p-id="30186" xmlns:xlink="http://www.w3.org/1999/xlink" width="128" height="128"><path d="M413.930667 616.533333Q461.013333 597.333333 512 597.333333a21.333333 21.333333 0 1 0 0-42.666666q-59.349333 0-114.197333 22.357333-54.869333 22.4-96.874667 63.744-42.048 41.408-64.810667 95.530667-12.693333 30.165333-16.789333 45.44Q213.333333 804.16 213.333333 832a21.333333 21.333333 0 1 0 42.666667 0q0-22.229333 4.544-39.253333 3.349333-12.437333 14.890667-39.893334 19.456-46.250667 55.424-81.664 36.010667-35.456 83.072-54.656z" fill="#515151" p-id="30187" data-spm-anchor-id="a313x.7781069.0.i51" class=""></path><path d="M746.666667 373.333333C746.666667 497.045333 646.378667 597.333333 522.666667 597.333333S298.666667 497.045333 298.666667 373.333333 398.954667 149.333333 522.666667 149.333333 746.666667 249.621333 746.666667 373.333333z m-42.666667 0q0-34.581333-12.736-66.752-13.824-34.922667-40.384-61.461333-26.538667-26.56-61.461333-40.384Q557.226667 192 522.666667 192t-66.752 12.736q-34.922667 13.824-61.461334 40.384-26.56 26.538667-40.384 61.461333Q341.333333 338.773333 341.333333 373.333333t12.736 66.752q13.824 34.922667 40.384 61.461334 26.538667 26.56 61.461334 40.384Q488.106667 554.666667 522.666667 554.666667t66.752-12.736q34.922667-13.824 61.461333-40.384 26.56-26.538667 40.384-61.461334Q704 407.893333 704 373.333333z" fill="#515151" p-id="30188" data-spm-anchor-id="a313x.7781069.0.i50" class=""></path><path d="M661.333333 661.333333a21.333333 21.333333 0 0 1 21.333334-21.333333h128a21.333333 21.333333 0 0 1 0 42.666667h-128a21.333333 21.333333 0 0 1-21.333334-21.333334zM576 746.666667a21.333333 21.333333 0 0 1 21.333333-21.333334h213.333334a21.333333 21.333333 0 1 1 0 42.666667H597.333333a21.333333 21.333333 0 0 1-21.333333-21.333333zM576 832a21.333333 21.333333 0 0 1 21.333333-21.333333h213.333334a21.333333 21.333333 0 1 1 0 42.666666H597.333333a21.333333 21.333333 0 0 1-21.333333-21.333333z" fill="#00d89f" p-id="30189" data-spm-anchor-id="a313x.7781069.0.i48" class=""></path></svg>