<?xml version="1.0" standalone="no"?><!DOCTYPE svg PUBLIC "-//W3C//DTD SVG 1.1//EN" "http://www.w3.org/Graphics/SVG/1.1/DTD/svg11.dtd"><svg t="1685695780320" class="icon" viewBox="0 0 1024 1024" version="1.1" xmlns="http://www.w3.org/2000/svg" p-id="19722" data-spm-anchor-id="a313x.7781069.0.i28" xmlns:xlink="http://www.w3.org/1999/xlink" width="128" height="128"><path d="M870.332005 0 153.667995 0C66.634794 0 0 66.634794 0 153.667995L0 870.332005c0 87.033201 66.634794 153.667995 153.667995 153.667995L870.332005 1024c87.033201 0 153.667995-66.634794 153.667995-153.667995L1024 153.667995C1024 66.634794 957.365206 0 870.332005 0L870.332005 0zM848.573705 457.60425c-34.677291 39.436919-153.328021 158.427623-153.328021 158.427623s5.099602 9.85923 5.099602 19.718459l0 5.099602c-79.213811-5.099602-158.427623-5.099602-222.682603-19.718459 84.313413-59.495352 133.609562-89.073041 227.782205-168.286853-98.932271-24.818061-331.814077-24.818061-396.069057 5.099602 104.031873 5.099602 188.005312 9.85923 272.318725 19.718459-39.436919 39.436919-143.468792 108.791501-227.782205 173.386454 98.932271 19.718459 237.641434 14.958831 356.292165-5.099602l39.436919-9.85923c-5.099602 9.85923-29.577689 14.958831-39.436919 19.718459 9.85923 54.39575 24.818061 143.468792 29.577689 178.146082 5.099602 19.718459-14.958831 34.677291-29.577689 24.818061-49.636122-24.818061-193.104914-104.031873-193.104914-104.031873s-143.468792 79.213811-193.104914 104.031873c-14.958831 5.099602-34.677291-5.099602-29.577689-24.818061 5.099602-54.39575 34.677291-222.682603 34.677291-222.682603l-158.427623-158.427623c-9.85923-14.958831-5.099602-34.677291 14.958831-39.436919 49.636122-5.099602 217.922975-34.677291 217.922975-34.677291s69.354582-153.328021 94.172643-202.964143c5.099602-14.958831 24.818061-14.958831 34.677291 0 19.718459 49.636122 94.172643 202.964143 94.172643 202.964143s158.427623 24.818061 212.823373 34.677291C858.432935 417.827357 863.532537 437.88579 848.573705 457.60425L848.573705 457.60425zM848.573705 457.60425" fill="#36ab60" p-id="19723" data-spm-anchor-id="a313x.7781069.0.i29" class=""></path></svg>