<?xml version="1.0" standalone="no"?><!DOCTYPE svg PUBLIC "-//W3C//DTD SVG 1.1//EN" "http://www.w3.org/Graphics/SVG/1.1/DTD/svg11.dtd"><svg t="1681351639588" class="icon" viewBox="0 0 1024 1024" version="1.1" xmlns="http://www.w3.org/2000/svg" p-id="15339" xmlns:xlink="http://www.w3.org/1999/xlink" width="128" height="128"><path d="M810.666667 616.533333l138.666666 81.066667v160L810.666667 938.666667l-138.666667-81.066667v-160l138.666667-81.066667m0-87.466666l-213.333334 123.733333v247.466667L810.666667 1024l213.333333-123.733333V652.8l-213.333333-123.733333zM800 298.666667c0-164.266667-134.4-298.666667-298.666667-298.666667s-298.666667 134.4-298.666666 298.666667c0 106.666667 55.466667 198.4 138.666666 251.733333C155.733333 612.266667 19.2 778.666667 0 983.466667c0 10.666667 2.133333 19.2 8.533333 27.733333s14.933333 12.8 25.6 12.8h4.266667c8.533333 0 17.066667-2.133333 23.466667-8.533333 8.533333-6.4 12.8-14.933333 12.8-25.6C93.866667 765.866667 281.6 597.333333 507.733333 597.333333h4.266667c160-6.4 288-136.533333 288-298.666666z m-298.666667 224C377.6 522.666667 277.333333 422.4 277.333333 298.666667S377.6 74.666667 501.333333 74.666667 725.333333 174.933333 725.333333 298.666667s-100.266667 224-224 224z" fill="#8a8a8a" p-id="15340" data-spm-anchor-id="a313x.7781069.0.i22" class=""></path><path d="M810.666667 840.533333c36.266667 0 64-27.733333 64-64s-29.866667-64-64-64c-36.266667 0-64 27.733333-64 64s29.866667 64 64 64z" fill="#60dfa0" p-id="15341" data-spm-anchor-id="a313x.7781069.0.i21" class=""></path></svg>