<?xml version="1.0" standalone="no"?><!DOCTYPE svg PUBLIC "-//W3C//DTD SVG 1.1//EN" "http://www.w3.org/Graphics/SVG/1.1/DTD/svg11.dtd"><svg t="1681957515106" class="icon" viewBox="0 0 1070 1024" version="1.1" xmlns="http://www.w3.org/2000/svg" p-id="3418" xmlns:xlink="http://www.w3.org/1999/xlink" width="133.75" height="128"><path d="M572.509091 478.533818c104.866909 0 189.812364-86.248727 189.812364-192.698182 0-106.402909-84.945455-192.651636-189.812364-192.744727-104.866909 0-189.812364 86.248727-189.905455 192.698182v0.093091c0.093091 106.402909 85.038545 192.698182 189.905455 192.698182zM252.229818 608.349091C214.760727 704.558545 176.872727 930.909091 176.872727 930.909091h322.56l-97.000727-404.247273c-58.414545 0-112.733091-14.615273-150.202182 81.640727z m320.279273-81.640727l-91.508364 129.768727L553.053091 930.909091h38.912l72.052364-274.478546-91.508364-129.768727z m320.279273 81.640727c-37.469091-96.256-91.787636-81.640727-150.202182-81.640727L645.585455 930.909091H968.145455s-37.888-226.350545-75.357091-322.606546z m-31.045819 166.679273h-113.105454v-25.6h113.105454v25.6z" fill="#67e0a4" p-id="3419"></path></svg>